<?xml version="1.0" standalone="no"?>
<!DOCTYPE svg PUBLIC "-//W3C//DTD SVG 20010904//EN"
 "http://www.w3.org/TR/2001/REC-SVG-20010904/DTD/svg10.dtd">
<svg version="1.0" xmlns="http://www.w3.org/2000/svg"
 width="90.000000pt" height="116.000000pt" viewBox="0 0 90.000000 116.000000"
 preserveAspectRatio="xMidYMid meet">

<g transform="translate(0.000000,116.000000) scale(0.100000,-0.100000)"
fill="#FF3E79" stroke="none">
<path d="M295 919 c-89 -44 -135 -118 -135 -217 0 -104 55 -189 147 -227 47
-20 132 -19 184 1 l41 17 67 -67 c67 -67 102 -81 129 -54 27 27 13 62 -54 129
l-67 67 17 41 c48 120 -13 268 -131 318 -48 20 -150 16 -198 -8z m166 -94 c90
-47 90 -193 0 -240 -91 -47 -201 17 -201 118 0 104 108 170 201 122z"/>
<path d="M0 50 l0 -50 450 0 450 0 0 50 c0 34 -4 50 -13 50 -22 0 -55 -29 -61
-55 -5 -20 -13 -25 -36 -25 -19 0 -30 5 -30 14 0 7 -9 25 -21 40 -15 19 -30
26 -55 26 -47 0 -70 -14 -82 -50 -9 -25 -17 -30 -41 -30 -20 0 -31 5 -31 14 0
7 -9 25 -21 40 -39 49 -139 25 -139 -34 0 -16 -7 -20 -35 -20 -28 0 -35 4 -35
20 0 57 -96 82 -138 37 -12 -13 -22 -31 -22 -40 0 -12 -9 -17 -31 -17 -24 0
-32 5 -41 30 -10 29 -34 50 -57 50 -6 0 -11 -21 -11 -50z"/>
</g>
</svg>
