<?xml version="1.0" standalone="no"?>
<!DOCTYPE svg PUBLIC "-//W3C//DTD SVG 20010904//EN"
 "http://www.w3.org/TR/2001/REC-SVG-20010904/DTD/svg10.dtd">
<svg version="1.0" xmlns="http://www.w3.org/2000/svg"
 width="167.000000pt" height="173.000000pt" viewBox="0 0 167.000000 173.000000"
 preserveAspectRatio="xMidYMid meet">

<g transform="translate(0.000000,173.000000) scale(0.100000,-0.100000)"
fill="#41F6D7" stroke="none">
<path d="M101 1663 c-65 -32 -95 -114 -64 -181 27 -59 699 -707 747 -720 52
-15 101 1 154 49 111 101 664 644 673 662 17 30 14 101 -5 133 -39 65 -122 92
-185 60 -17 -9 -111 -94 -209 -189 -97 -94 -224 -218 -282 -274 l-105 -102
-90 87 c-49 48 -175 169 -280 271 -104 101 -203 192 -220 202 -37 23 -89 24
-134 2z"/>
<path d="M115 966 c-42 -18 -83 -69 -91 -112 -10 -53 18 -103 100 -181 39 -37
191 -185 339 -328 297 -289 324 -308 398 -286 34 10 99 68 358 318 397 383
387 373 399 416 28 101 -59 199 -161 181 -45 -7 -68 -27 -357 -308 -91 -89
-191 -185 -222 -214 l-55 -54 -174 169 c-96 93 -225 218 -287 279 -136 131
-176 151 -247 120z"/>
</g>
</svg>
